<svg xmlns="http://www.w3.org/2000/svg" viewBox="0 0 64 64">
  <g transform="translate(32,34)">
    <ellipse cx="0" cy="2" rx="10" ry="12" fill="#e74c3c"/>
    <ellipse cx="0" cy="16" rx="8" ry="6" fill="#c0392b"/>
    <ellipse cx="0" cy="24" rx="6" ry="5" fill="#c0392b"/>
    <ellipse cx="0" cy="0" rx="8" ry="8" fill="#e74c3c"/>
    <circle cx="-3" cy="-2" r="1.5" fill="#fff"/>
    <circle cx="3" cy="-2" r="1.5" fill="#fff"/>
    <circle cx="-3" cy="-2" r="0.8" fill="#1a1a2e"/>
    <circle cx="3" cy="-2" r="0.8" fill="#1a1a2e"/>
    <line x1="-3" y1="-8" x2="-6" y2="-18" stroke="#e74c3c" stroke-width="2" stroke-linecap="round"/>
    <circle cx="-6" cy="-19" r="2" fill="#e74c3c"/>
    <line x1="3" y1="-8" x2="6" y2="-18" stroke="#e74c3c" stroke-width="2" stroke-linecap="round"/>
    <circle cx="6" cy="-19" r="2" fill="#e74c3c"/>
    <path d="M-8,-1 Q-16,-6 -20,-2" stroke="#e74c3c" stroke-width="3" fill="none" stroke-linecap="round"/>
    <path d="M-20,-2 L-24,-6 M-20,-2 L-24,2" stroke="#e74c3c" stroke-width="2.5" fill="none" stroke-linecap="round"/>
    <path d="M8,-1 Q16,-6 20,-2" stroke="#e74c3c" stroke-width="3" fill="none" stroke-linecap="round"/>
    <path d="M20,-2 L24,-6 M20,-2 L24,2" stroke="#e74c3c" stroke-width="2.5" fill="none" stroke-linecap="round"/>
    <line x1="-6" y1="10" x2="-10" y2="14" stroke="#c0392b" stroke-width="1.5" stroke-linecap="round"/>
    <line x1="6" y1="10" x2="10" y2="14" stroke="#c0392b" stroke-width="1.5" stroke-linecap="round"/>
    <line x1="-7" y1="14" x2="-11" y2="18" stroke="#c0392b" stroke-width="1.5" stroke-linecap="round"/>
    <line x1="7" y1="14" x2="11" y2="18" stroke="#c0392b" stroke-width="1.5" stroke-linecap="round"/>
    <line x1="-6" y1="18" x2="-10" y2="22" stroke="#c0392b" stroke-width="1.5" stroke-linecap="round"/>
    <line x1="6" y1="18" x2="10" y2="22" stroke="#c0392b" stroke-width="1.5" stroke-linecap="round"/>
    <path d="M-4,27 Q-6,30 -3,32" stroke="#c0392b" stroke-width="1.5" fill="none" stroke-linecap="round"/>
    <path d="M4,27 Q6,30 3,32" stroke="#c0392b" stroke-width="1.5" fill="none" stroke-linecap="round"/>
    <path d="M-2,28 Q-3,31 -1,33" stroke="#c0392b" stroke-width="1.5" fill="none" stroke-linecap="round"/>
    <path d="M2,28 Q3,31 1,33" stroke="#c0392b" stroke-width="1.5" fill="none" stroke-linecap="round"/>
  </g>
</svg>
